<mxfile host="app.diagrams.net" agent="Mozilla/5.0 (Windows NT 10.0; Win64; x64) AppleWebKit/537.36 (KHTML, like Gecko) Chrome/131.0.0.0 Safari/537.36" version="26.1.0">
  <diagram name="P치gina-1" id="q80J1diNfyU3QOZZrtsN">
    <mxGraphModel dx="1366" dy="693" grid="1" gridSize="10" guides="1" tooltips="1" connect="1" arrows="1" fold="1" page="1" pageScale="1" pageWidth="827" pageHeight="1169" math="0" shadow="0">
      <root>
        <mxCell id="0" />
        <mxCell id="1" parent="0" />
        <mxCell id="PXHtQTtYW7a2bSJ7Pqfr-1" value="Cliente" style="shape=umlActor;verticalLabelPosition=bottom;verticalAlign=top;html=1;outlineConnect=0;labelBackgroundColor=none;fillColor=#A8DADC;strokeColor=#457B9D;fontColor=#1D3557;" vertex="1" parent="1">
          <mxGeometry x="64" y="110" width="30" height="60" as="geometry" />
        </mxCell>
        <mxCell id="PXHtQTtYW7a2bSJ7Pqfr-3" value="Sistema de facturaci칩n" style="rounded=0;whiteSpace=wrap;html=1;labelBackgroundColor=none;fillColor=#A8DADC;strokeColor=#457B9D;fontColor=#1D3557;" vertex="1" parent="1">
          <mxGeometry x="304" y="110" width="120" height="60" as="geometry" />
        </mxCell>
        <mxCell id="PXHtQTtYW7a2bSJ7Pqfr-4" value="Base de datos" style="rounded=0;whiteSpace=wrap;html=1;labelBackgroundColor=none;fillColor=#A8DADC;strokeColor=#457B9D;fontColor=#1D3557;" vertex="1" parent="1">
          <mxGeometry x="664" y="110" width="120" height="60" as="geometry" />
        </mxCell>
        <mxCell id="PXHtQTtYW7a2bSJ7Pqfr-5" value="Procesador de pagos" style="rounded=0;whiteSpace=wrap;html=1;labelBackgroundColor=none;fillColor=#A8DADC;strokeColor=#457B9D;fontColor=#1D3557;" vertex="1" parent="1">
          <mxGeometry x="144" y="310" width="120" height="60" as="geometry" />
        </mxCell>
        <mxCell id="PXHtQTtYW7a2bSJ7Pqfr-6" value="" style="endArrow=none;html=1;rounded=0;entryX=0;entryY=0.5;entryDx=0;entryDy=0;labelBackgroundColor=none;strokeColor=#457B9D;fontColor=default;" edge="1" parent="1" source="PXHtQTtYW7a2bSJ7Pqfr-1" target="PXHtQTtYW7a2bSJ7Pqfr-3">
          <mxGeometry width="50" height="50" relative="1" as="geometry">
            <mxPoint x="124" y="160" as="sourcePoint" />
            <mxPoint x="634" y="160" as="targetPoint" />
          </mxGeometry>
        </mxCell>
        <mxCell id="PXHtQTtYW7a2bSJ7Pqfr-7" value="" style="endArrow=none;html=1;rounded=0;entryX=0;entryY=0.5;entryDx=0;entryDy=0;exitX=1;exitY=0.5;exitDx=0;exitDy=0;labelBackgroundColor=none;strokeColor=#457B9D;fontColor=default;" edge="1" parent="1" source="PXHtQTtYW7a2bSJ7Pqfr-3" target="PXHtQTtYW7a2bSJ7Pqfr-4">
          <mxGeometry width="50" height="50" relative="1" as="geometry">
            <mxPoint x="444" y="140" as="sourcePoint" />
            <mxPoint x="654" y="140" as="targetPoint" />
          </mxGeometry>
        </mxCell>
        <mxCell id="PXHtQTtYW7a2bSJ7Pqfr-8" value="" style="endArrow=classic;html=1;rounded=0;labelBackgroundColor=none;strokeColor=#457B9D;fontColor=default;" edge="1" parent="1">
          <mxGeometry width="50" height="50" relative="1" as="geometry">
            <mxPoint x="464" y="130" as="sourcePoint" />
            <mxPoint x="624" y="130" as="targetPoint" />
          </mxGeometry>
        </mxCell>
        <mxCell id="PXHtQTtYW7a2bSJ7Pqfr-9" value="1. Solicita factura" style="text;html=1;align=center;verticalAlign=middle;whiteSpace=wrap;rounded=0;labelBackgroundColor=none;fontColor=#1D3557;" vertex="1" parent="1">
          <mxGeometry x="154" y="80" width="100" height="30" as="geometry" />
        </mxCell>
        <mxCell id="PXHtQTtYW7a2bSJ7Pqfr-10" value="" style="endArrow=classic;html=1;rounded=0;labelBackgroundColor=none;strokeColor=#457B9D;fontColor=default;" edge="1" parent="1">
          <mxGeometry width="50" height="50" relative="1" as="geometry">
            <mxPoint x="124" y="130" as="sourcePoint" />
            <mxPoint x="284" y="130" as="targetPoint" />
          </mxGeometry>
        </mxCell>
        <mxCell id="PXHtQTtYW7a2bSJ7Pqfr-11" value="" style="endArrow=classic;html=1;rounded=0;labelBackgroundColor=none;strokeColor=#457B9D;fontColor=default;" edge="1" parent="1">
          <mxGeometry width="50" height="50" relative="1" as="geometry">
            <mxPoint x="624" y="150" as="sourcePoint" />
            <mxPoint x="464" y="150" as="targetPoint" />
          </mxGeometry>
        </mxCell>
        <mxCell id="PXHtQTtYW7a2bSJ7Pqfr-12" value="2. Obtener detalle de la compra&lt;div&gt;6. Registrar transacci칩n&lt;/div&gt;" style="text;html=1;align=center;verticalAlign=middle;whiteSpace=wrap;rounded=0;labelBackgroundColor=none;fontColor=#1D3557;" vertex="1" parent="1">
          <mxGeometry x="454" y="80" width="180" height="30" as="geometry" />
        </mxCell>
        <mxCell id="PXHtQTtYW7a2bSJ7Pqfr-13" value="" style="endArrow=classic;html=1;rounded=0;labelBackgroundColor=none;strokeColor=#457B9D;fontColor=default;" edge="1" parent="1">
          <mxGeometry width="50" height="50" relative="1" as="geometry">
            <mxPoint x="284" y="150" as="sourcePoint" />
            <mxPoint x="124" y="150" as="targetPoint" />
          </mxGeometry>
        </mxCell>
        <mxCell id="PXHtQTtYW7a2bSJ7Pqfr-14" value="3. Detalle de la compra" style="text;html=1;align=center;verticalAlign=middle;whiteSpace=wrap;rounded=0;labelBackgroundColor=none;fontColor=#1D3557;" vertex="1" parent="1">
          <mxGeometry x="464" y="170" width="160" height="30" as="geometry" />
        </mxCell>
        <mxCell id="PXHtQTtYW7a2bSJ7Pqfr-15" value="5. Genera factura" style="text;html=1;align=center;verticalAlign=middle;whiteSpace=wrap;rounded=0;labelBackgroundColor=none;fontColor=#1D3557;" vertex="1" parent="1">
          <mxGeometry x="124" y="160" width="160" height="30" as="geometry" />
        </mxCell>
        <mxCell id="PXHtQTtYW7a2bSJ7Pqfr-16" value="4. Calcular totales" style="text;html=1;align=center;verticalAlign=middle;whiteSpace=wrap;rounded=0;labelBackgroundColor=none;fontColor=#1D3557;" vertex="1" parent="1">
          <mxGeometry x="284" y="180" width="160" height="30" as="geometry" />
        </mxCell>
        <mxCell id="PXHtQTtYW7a2bSJ7Pqfr-17" value="" style="endArrow=none;html=1;rounded=0;exitX=0.25;exitY=0;exitDx=0;exitDy=0;labelBackgroundColor=none;strokeColor=#457B9D;fontColor=default;" edge="1" parent="1" source="PXHtQTtYW7a2bSJ7Pqfr-5">
          <mxGeometry width="50" height="50" relative="1" as="geometry">
            <mxPoint x="504" y="170" as="sourcePoint" />
            <mxPoint x="104" y="190" as="targetPoint" />
          </mxGeometry>
        </mxCell>
        <mxCell id="PXHtQTtYW7a2bSJ7Pqfr-19" value="" style="endArrow=classic;html=1;rounded=0;entryX=0.952;entryY=0.977;entryDx=0;entryDy=0;entryPerimeter=0;labelBackgroundColor=none;strokeColor=#457B9D;fontColor=default;" edge="1" parent="1">
          <mxGeometry width="50" height="50" relative="1" as="geometry">
            <mxPoint x="107" y="209" as="sourcePoint" />
            <mxPoint x="153.32000000000016" y="288.30999999999995" as="targetPoint" />
          </mxGeometry>
        </mxCell>
        <mxCell id="PXHtQTtYW7a2bSJ7Pqfr-20" value="7. Genera pago" style="text;html=1;align=center;verticalAlign=middle;whiteSpace=wrap;rounded=0;labelBackgroundColor=none;fontColor=#1D3557;" vertex="1" parent="1">
          <mxGeometry x="23" y="310" width="160" height="30" as="geometry" />
        </mxCell>
        <mxCell id="PXHtQTtYW7a2bSJ7Pqfr-21" value="" style="endArrow=none;html=1;rounded=0;exitX=0.75;exitY=0;exitDx=0;exitDy=0;entryX=0.107;entryY=1.002;entryDx=0;entryDy=0;entryPerimeter=0;labelBackgroundColor=none;strokeColor=#457B9D;fontColor=default;" edge="1" parent="1" source="PXHtQTtYW7a2bSJ7Pqfr-5" target="PXHtQTtYW7a2bSJ7Pqfr-3">
          <mxGeometry width="50" height="50" relative="1" as="geometry">
            <mxPoint x="274" y="310" as="sourcePoint" />
            <mxPoint x="204" y="190" as="targetPoint" />
          </mxGeometry>
        </mxCell>
        <mxCell id="PXHtQTtYW7a2bSJ7Pqfr-22" value="" style="endArrow=classic;html=1;rounded=0;labelBackgroundColor=none;strokeColor=#457B9D;fontColor=default;" edge="1" parent="1">
          <mxGeometry width="50" height="50" relative="1" as="geometry">
            <mxPoint x="234" y="294" as="sourcePoint" />
            <mxPoint x="284" y="210" as="targetPoint" />
          </mxGeometry>
        </mxCell>
        <mxCell id="PXHtQTtYW7a2bSJ7Pqfr-25" value="8. Confirmaci칩n de pago" style="text;html=1;align=center;verticalAlign=middle;whiteSpace=wrap;rounded=0;labelBackgroundColor=none;fontColor=#1D3557;" vertex="1" parent="1">
          <mxGeometry x="241" y="280" width="160" height="30" as="geometry" />
        </mxCell>
      </root>
    </mxGraphModel>
  </diagram>
</mxfile>
